<svg width="30" height="30" viewBox="0 0 30 30" fill="none" xmlns="http://www.w3.org/2000/svg">
<path d="M10.4508 0.986669C7.45329 2.02652 4.86828 4.00018 3.07542 6.61777C1.28256 9.23535 0.376358 12.3589 0.489915 15.5296C0.603472 18.7002 1.7308 21.7509 3.70632 24.2336C5.68184 26.7162 8.40142 28.4999 11.4656 29.3226C13.9498 29.9636 16.5525 29.9918 19.05 29.4046C21.3124 28.8964 23.4041 27.8094 25.1203 26.25C26.9064 24.5773 28.2029 22.4495 28.8703 20.0953C29.5957 17.5351 29.7248 14.8428 29.2476 12.225H15.2976V18.0117H23.3765C23.2151 18.9346 22.8691 19.8155 22.3592 20.6016C21.8494 21.3877 21.1862 22.0629 20.4093 22.5867C19.4228 23.2392 18.3107 23.6783 17.1445 23.8757C15.9748 24.0932 14.7751 24.0932 13.6054 23.8757C12.4199 23.6306 11.2985 23.1413 10.3125 22.439C8.72844 21.3177 7.53906 19.7248 6.91403 17.8875C6.27844 16.0157 6.27844 13.9865 6.91403 12.1148C7.35894 10.8028 8.09442 9.60824 9.0656 8.62026C10.177 7.46889 11.584 6.64588 13.1324 6.24154C14.6807 5.83719 16.3105 5.86713 17.8429 6.32807C19.0401 6.69556 20.1348 7.33762 21.0398 8.20308C21.9508 7.29683 22.8601 6.38823 23.7679 5.47729C24.2367 4.98745 24.7476 4.52104 25.2093 4.01948C23.8279 2.73388 22.2063 1.73352 20.4375 1.07573C17.2165 -0.093824 13.6921 -0.125255 10.4508 0.986669Z" fill="white"/>
</svg>
