<svg width="35" height="35" viewBox="0 0 35 35" fill="none" xmlns="http://www.w3.org/2000/svg">
<path d="M17.5 4.375C25.9583 4.375 32.814 9.71833 32.814 16.3115C32.814 22.9031 25.9583 28.2465 17.5015 28.2465C16.6594 28.245 15.8183 28.1914 14.9829 28.086L8.55459 32.2904C7.82397 32.6769 7.56584 32.6346 7.86626 31.6881L9.16709 26.3244C4.96709 24.1952 2.18896 20.5056 2.18896 16.3115C2.18896 9.71979 9.04313 4.375 17.5015 4.375M26.1173 16.1292L28.261 14.0525C28.3847 13.924 28.4538 13.7526 28.4535 13.5742C28.4533 13.3959 28.3839 13.2246 28.2599 13.0964C28.1359 12.9683 27.967 12.8932 27.7887 12.8871C27.6105 12.881 27.4369 12.9444 27.3044 13.0638L24.4927 15.785V13.5362C24.4927 13.3537 24.4202 13.1786 24.2911 13.0495C24.162 12.9204 23.9869 12.8479 23.8044 12.8479C23.6218 12.8479 23.4467 12.9204 23.3177 13.0495C23.1886 13.1786 23.116 13.3537 23.116 13.5362V17.2652C23.0918 17.3718 23.0918 17.4824 23.116 17.589V19.6875C23.116 19.8701 23.1886 20.0451 23.3177 20.1742C23.4467 20.3033 23.6218 20.3758 23.8044 20.3758C23.9869 20.3758 24.162 20.3033 24.2911 20.1742C24.4202 20.0451 24.4927 19.8701 24.4927 19.6875V17.6998L25.1154 17.0975L27.1979 20.0623C27.2499 20.1363 27.316 20.1994 27.3923 20.2478C27.4687 20.2963 27.5539 20.3293 27.643 20.3449C27.7321 20.3605 27.8234 20.3583 27.9117 20.3386C28 20.3189 28.0835 20.282 28.1575 20.23C28.2315 20.178 28.2946 20.1119 28.3431 20.0356C28.3916 19.9592 28.4245 19.874 28.4401 19.7849C28.4557 19.6958 28.4535 19.6045 28.4338 19.5163C28.4141 19.428 28.3772 19.3444 28.3252 19.2704L26.1173 16.1292ZM21.8035 18.935H19.6744V13.5581C19.6662 13.3812 19.5902 13.2143 19.4622 13.092C19.3341 12.9697 19.1639 12.9015 18.9868 12.9015C18.8097 12.9015 18.6394 12.9697 18.5114 13.092C18.3833 13.2143 18.3073 13.3812 18.2992 13.5581V19.6233C18.2992 20.0025 18.6054 20.3117 18.986 20.3117H21.8035C21.9861 20.3117 22.1612 20.2391 22.2903 20.1101C22.4194 19.981 22.4919 19.8059 22.4919 19.6233C22.4919 19.4408 22.4194 19.2657 22.2903 19.1366C22.1612 19.0075 21.9861 18.935 21.8035 18.935ZM13.2621 17.344L14.2771 14.8531L15.2075 17.3425L13.2621 17.344ZM16.9415 18.0542L16.9444 18.0308C16.9439 17.8575 16.8777 17.6907 16.7592 17.5642L15.2338 13.4808C15.1698 13.2862 15.048 13.1158 14.8846 12.9923C14.7212 12.8688 14.524 12.798 14.3194 12.7896C14.1134 12.7895 13.9122 12.8517 13.7423 12.968C13.5723 13.0844 13.4415 13.2494 13.3671 13.4415L10.9433 19.3842C10.8743 19.5532 10.8752 19.7427 10.9459 19.911C11.0166 20.0794 11.1513 20.2127 11.3203 20.2818C11.4893 20.3508 11.6789 20.3499 11.8472 20.2792C12.0155 20.2085 12.1489 20.0738 12.2179 19.9048L12.7021 18.7192H15.7208L16.1554 19.8858C16.1851 19.973 16.2319 20.0534 16.2932 20.1222C16.3545 20.191 16.4289 20.2467 16.5121 20.2862C16.5953 20.3257 16.6856 20.348 16.7777 20.352C16.8697 20.3559 16.9616 20.3414 17.0479 20.3092C17.1341 20.2769 17.2131 20.2277 17.28 20.1645C17.347 20.1012 17.4005 20.0251 17.4375 19.9408C17.4745 19.8564 17.4942 19.7655 17.4954 19.6734C17.4966 19.5813 17.4793 19.4899 17.4446 19.4046L16.9415 18.0542ZM12.0954 13.5654C12.0958 13.475 12.0783 13.3855 12.044 13.3019C12.0096 13.2183 11.959 13.1423 11.8952 13.0783C11.8313 13.0144 11.7555 12.9637 11.672 12.9291C11.5885 12.8946 11.4989 12.8769 11.4085 12.8771H6.67626C6.4937 12.8771 6.31862 12.9496 6.18953 13.0787C6.06044 13.2078 5.98792 13.3829 5.98792 13.5654C5.98792 13.748 6.06044 13.9231 6.18953 14.0521C6.31862 14.1812 6.4937 14.2537 6.67626 14.2537H8.36792V19.7021C8.36792 19.8846 8.44044 20.0597 8.56953 20.1888C8.69862 20.3179 8.8737 20.3904 9.05626 20.3904C9.23881 20.3904 9.41389 20.3179 9.54298 20.1888C9.67207 20.0597 9.74459 19.8846 9.74459 19.7021V14.2537H11.4071C11.4976 14.2541 11.5873 14.2366 11.671 14.2021C11.7546 14.1677 11.8307 14.117 11.8947 14.053C11.9587 13.989 12.0094 13.913 12.0438 13.8293C12.0783 13.7456 12.0958 13.6559 12.0954 13.5654Z" fill="white"/>
</svg>
